HIERARCHY
ROOT Hips
{
	OFFSET 0 0 0
	CHANNELS 6 Xposition Yposition Zposition Yrotation Xrotation Zrotation
	JOINT Spine
	{
		OFFSET -0 8.49848 -2.70889
		CHANNELS 3 Yrotation Xrotation Zrotation
		JOINT Spine1
		{
			OFFSET -0 9.87358 0
			CHANNELS 3 Yrotation Xrotation Zrotation
			JOINT Spine2
			{
				OFFSET -0 9.87358 0
				CHANNELS 3 Yrotation Xrotation Zrotation
				JOINT Spine3
				{
					OFFSET -0 9.87358 0
					CHANNELS 3 Yrotation Xrotation Zrotation
					JOINT Neck
					{
						OFFSET -0 15.0924 3.70889
						CHANNELS 3 Yrotation Xrotation Zrotation
						JOINT Head
						{
							OFFSET -0 10.6231 0
							CHANNELS 3 Yrotation Xrotation Zrotation
							End Site
							{
								OFFSET 0 15 0
							}
						}
					}
					JOINT LeftShoulder
					{
						OFFSET 1.77052 5.74391 3.54103
						CHANNELS 3 Yrotation Xrotation Zrotation
						JOINT LeftArm
						{
							OFFSET 16.6103 0 0
							CHANNELS 3 Yrotation Xrotation Zrotation
							JOINT LeftForeArm
							{
								OFFSET 23.9031 0 0
								CHANNELS 3 Yrotation Xrotation Zrotation
								JOINT LeftHand
								{
									OFFSET 22.9034 0 0
									CHANNELS 3 Yrotation Xrotation Zrotation
									End Site
									{
										OFFSET 15 0 0
									}
								}
							}
						}
					}
					JOINT RightShoulder
					{
						OFFSET -1.77052 5.74391 3.54103
						CHANNELS 3 Yrotation Xrotation Zrotation
						JOINT RightArm
						{
							OFFSET -16.6103 0 0
							CHANNELS 3 Yrotation Xrotation Zrotation
							JOINT RightForeArm
							{
								OFFSET -23.9031 0 0
								CHANNELS 3 Yrotation Xrotation Zrotation
								JOINT RightHand
								{
									OFFSET -22.9034 0 0
									CHANNELS 3 Yrotation Xrotation Zrotation
									End Site
									{
										OFFSET -15 0 0
									}
								}
							}
						}
					}
				}
			}
		}
	}
	JOINT LeftUpLeg
	{
		OFFSET 10.6231 -3.54103 2
		CHANNELS 3 Yrotation Xrotation Zrotation
		JOINT LeftLeg
		{
			OFFSET -0 -40.1531 2.47872
			CHANNELS 3 Yrotation Xrotation Zrotation
			JOINT LeftFoot
			{
				OFFSET -0 -42.693 -2.47872
				CHANNELS 3 Yrotation Xrotation Zrotation
				JOINT LeftToeBase
				{
					OFFSET -0 -6.83596 15.9346
					CHANNELS 3 Yrotation Xrotation Zrotation
					End Site
					{
						OFFSET 0 0 5
					}
				}
			}
		}
	}
	JOINT RightUpLeg
	{
		OFFSET -10.6231 -3.54103 2
		CHANNELS 3 Yrotation Xrotation Zrotation
		JOINT RightLeg
		{
			OFFSET -0 -40.1531 2.47872
			CHANNELS 3 Yrotation Xrotation Zrotation
			JOINT RightFoot
			{
				OFFSET -0 -42.693 -2.47872
				CHANNELS 3 Yrotation Xrotation Zrotation
				JOINT RightToeBase
				{
					OFFSET -0 -6.83596 15.9346
					CHANNELS 3 Yrotation Xrotation Zrotation
					End Site
					{
						OFFSET 0 0 5
					}
				}
			}
		}
	}
}
MOTION
Frames: 12
Frame Time: 0.00833333
0 95.450257 0 0 0 0 0 0 0 0 0 0 0 0 0 0 0 0 0 0 0 0 0 0 0 0 0 0 0 0 0 0 0 0 0 0 0 0 0 0 0 0 0 0 0 0 0 0 0 0 0 0 0 0 0 0 0 0 0 0 0 0 0 0 0 0 0 0 0 0 0 0
-92.995660 94.937299 84.087628 -2.015536 -0.268198 2.986059 0.403897 0.147022 -0.494378 0.355374 0.327664 -0.491478 0.298567 0.378442 -0.411416 0.240326 0.512783 -0.208900 2.582735 9.172557 0.031644 0.740237 15.693268 -1.831792 10.822969 -0.487343 -8.372666 -15.817252 9.203472 -63.605145 -28.121133 11.399219 -5.628299 6.005668 6.604190 -7.945608 -8.612062 -1.704847 5.060883 16.682215 3.847173 68.615430 19.625675 10.425381 3.612798 -14.682161 2.048698 10.385236 25.285621 4.451671 2.748482 0.000000 -3.430589 0.000000 2.072391 6.365612 -2.429266 0.000000 -6.383335 0.000000 -9.187252 2.780398 -11.793492 0.000000 -0.083600 0.000000 -4.342841 3.530539 7.497458 0.000000 -7.761542 0.000000
-92.993567 94.933612 84.094623 -2.008206 -0.292679 3.005307 0.393400 0.171649 -0.553521 0.341324 0.292475 -0.448463 0.307003 0.397118 -0.355951 0.267213 0.504463 -0.227317 2.553556 9.182304 -0.015593 0.744099 15.724058 -1.789179 10.830009 -0.445626 -8.407051 -15.818527 9.166906 -63.555317 -28.139000 11.435402 -5.661895 5.981715 6.664092 -8.008773 -8.622750 -1.685177 5.029867 16.702542 3.839323 68.619330 19.623606 10.468392 3.615857 -14.686802 2.031342 10.355902 25.264214 4.471091 2.740611 0.000000 -3.399167 0.000000 2.078880 6.336077 -2.447520 0.000000 -6.372772 0.000000 -9.161378 2.802815 -11.819957 0.000000 -0.060331 0.000000 -4.380055 3.526758 7.555449 0.000000 -7.807920 0.000000
-92.996869 94.932336 84.101855 -1.997087 -0.307609 2.995343 0.398400 0.167087 -0.523316 0.353197 0.307180 -0.465445 0.306782 0.383984 -0.369941 0.259885 0.489473 -0.196157 2.504769 9.197320 -0.045963 0.736358 15.758293 -1.746549 10.830438 -0.428707 -8.412784 -15.776216 9.144689 -63.542254 -28.162915 11.502181 -5.694100 5.991702 6.672487 -7.975094 -8.646073 -1.666572 5.035648 16.634293 3.819895 68.594296 19.628447 10.543223 3.658398 -14.702006 2.021981 10.363691 25.252927 4.481046 2.760596 0.000000 -3.402120 0.000000 2.081808 6.357284 -2.456211 0.000000 -6.418649 0.000000 -9.132849 2.818462 -11.807267 0.000000 -0.033706 0.000000 -4.417208 3.517908 7.540635 0.000000 -7.833649 0.000000
-92.999146 94.931030 84.109106 -1.976145 -0.325745 3.006193 0.392337 0.169358 -0.532814 0.347869 0.302782 -0.461637 0.305389 0.382163 -0.362848 0.266267 0.484597 -0.211743 2.486664 9.209480 -0.027258 0.723771 15.783754 -1.750814 10.844749 -0.434692 -8.389661 -15.749975 9.114569 -63.533336 -28.141603 11.566241 -5.712775 5.955734 6.685240 -8.033424 -8.662740 -1.612453 5.064822 16.647545 3.780615 68.570634 19.624853 10.531243 3.658896 -14.685579 2.003126 10.371560 25.244150 4.490452 2.760582 0.000000 -3.371413 0.000000 2.069161 6.331234 -2.473767 0.000000 -6.385533 0.000000 -9.142726 2.830856 -11.823478 0.000000 -0.004433 0.000000 -4.422811 3.492913 7.538345 0.000000 -7.816080 0.000000
-92.999036 94.929541 84.114929 -1.967302 -0.340520 3.014024 0.392369 0.168192 -0.552045 0.346885 0.302803 -0.451918 0.301651 0.383024 -0.345080 0.264999 0.470876 -0.204465 2.466127 9.239620 -0.039968 0.717933 15.765223 -1.745206 10.859452 -0.383372 -8.406300 -15.715486 9.066226 -63.491570 -28.180029 11.624316 -5.754588 5.967167 6.647495 -8.045380 -8.650414 -1.602574 5.067139 16.574681 3.785245 68.554814 19.655195 10.543325 3.676497 -14.723555 2.085947 10.359094 25.243970 4.499066 2.759919 0.000000 -3.352101 0.000000 2.055765 6.311964 -2.432728 0.000000 -6.389574 0.000000 -9.115266 2.846645 -11.832094 0.000000 0.017804 0.000000 -4.461612 3.474424 7.571904 0.000000 -7.805225 0.000000
-93.000385 94.929535 84.117889 -1.964938 -0.356235 3.009543 0.402254 0.184158 -0.523959 0.360358 0.293641 -0.459380 0.303645 0.376240 -0.364833 0.262092 0.465653 -0.193196 2.449301 9.230288 -0.012809 0.698290 15.812778 -1.777892 10.845521 -0.430067 -8.400000 -15.687241 9.114303 -63.498717 -28.193834 11.612973 -5.753866 5.954773 6.722126 -8.069932 -8.668487 -1.615436 5.082476 16.533598 3.798792 68.573058 19.644112 10.590644 3.650385 -14.708394 2.061333 10.423971 25.216326 4.506586 2.770795 0.000000 -3.338366 0.000000 2.087000 6.305548 -2.449529 0.000000 -6.359150 0.000000 -9.059388 2.861799 -11.829670 0.000000 0.045077 0.000000 -4.508519 3.489006 7.598728 0.000000 -7.859673 0.000000
-93.006714 94.924341 84.126068 -1.944538 -0.385585 3.017991 0.389486 0.198758 -0.575722 0.345016 0.291916 -0.428854 0.297697 0.368604 -0.316262 0.277199 0.465772 -0.243159 2.415801 9.256352 -0.020932 0.700823 15.813093 -1.702924 10.871759 -0.402994 -8.352591 -15.735602 9.091054 -63.523189 -28.202920 11.664397 -5.733930 5.962234 6.566244 -8.027175 -8.660940 -1.595282 5.110679 16.459929 3.775293 68.544332 19.673418 10.615554 3.710789 -14.762943 2.129975 10.366995 25.208618 4.523662 2.782841 0.000000 -3.309336 0.000000 2.057367 6.282048 -2.437625 0.000000 -6.360661 0.000000 -9.095934 2.898505 -11.841538 0.000000 0.042527 0.000000 -4.504424 3.460944 7.587795 0.000000 -7.833982 0.000000
-93.009894 94.923737 84.129755 -1.926674 -0.396066 3.001920 0.394808 0.192822 -0.542723 0.353655 0.291655 -0.438250 0.277621 0.358242 -0.341845 0.250581 0.473301 -0.243100 2.432718 9.266544 0.053997 0.681937 15.812656 -1.764273 10.876720 -0.414031 -8.317819 -15.700430 9.101919 -63.543572 -28.208119 11.648238 -5.685331 5.914841 6.690676 -8.122926 -8.601246 -1.561352 5.160108 16.391183 3.783086 68.524499 19.717762 10.542672 3.699660 -14.784410 2.268550 10.343391 25.175621 4.523743 2.801031 0.000000 -3.304639 0.000000 2.080935 6.275381 -2.445096 0.000000 -6.378585 0.000000 -9.125883 2.901494 -11.827873 0.000000 0.062510 0.000000 -4.475641 3.442429 7.599533 0.000000 -7.823076 0.000000
-93.010461 94.923901 84.133539 -1.922324 -0.404656 3.013060 0.404810 0.175562 -0.532328 0.365833 0.318233 -0.457306 0.279133 0.366550 -0.361514 0.241770 0.434467 -0.224978 2.420454 9.289930 0.096261 0.662737 15.801432 -1.793413 10.898678 -0.407073 -8.309350 -15.781062 9.132286 -63.565643 -28.187864 11.509164 -5.634491 5.900511 6.765119 -8.072126 -8.607800 -1.560649 5.181425 16.351453 3.794511 68.503650 19.706561 10.585755 3.735400 -14.763256 2.312783 10.370879 25.184966 4.524964 2.795225 0.000000 -3.278911 0.000000 2.070262 6.266582 -2.489740 0.000000 -6.366108 0.000000 -9.137201 2.907874 -11.839773 0.000000 0.070257 0.000000 -4.487359 3.436673 7.602470 0.000000 -7.844696 0.000000
-93.012427 94.922449 84.135059 -1.917487 -0.410432 3.012636 0.411388 0.192365 -0.530231 0.370853 0.292059 -0.452412 0.286887 0.349239 -0.359536 0.248207 0.436008 -0.219421 2.398172 9.319930 0.129825 0.633881 15.780392 -1.853688 10.873600 -0.384130 -8.324499 -15.740976 9.122333 -63.527003 -28.209336 11.549079 -5.674321 5.894413 6.687703 -8.079787 -8.644962 -1.538793 5.195367 16.336623 3.767807 68.458643 19.697073 10.660196 3.814280 -14.789882 2.300729 10.268659 25.171118 4.527815 2.802983 0.000000 -3.271018 0.000000 2.074088 6.251220 -2.508919 0.000000 -6.334394 0.000000 -9.116053 2.916259 -11.838173 0.000000 0.078686 0.000000 -4.509374 3.439122 7.566867 0.000000 -7.845570 0.000000
-93.015503 94.923181 84.137885 -1.899400 -0.422853 3.020725 0.416832 0.203570 -0.545773 0.371832 0.282475 -0.438059 0.278218 0.346316 -0.347373 0.246125 0.425729 -0.248693 2.375054 9.316432 0.135832 0.628467 15.812117 -1.825019 10.884254 -0.350067 -8.313983 -15.794552 9.113096 -63.505328 -28.196117 11.465077 -5.657663 5.891072 6.739041 -8.064939 -8.634793 -1.519994 5.227355 16.266167 3.783534 68.480975 19.731126 10.626885 3.768023 -14.786330 2.381675 10.298962 25.177126 4.528146 2.798557 0.000000 -3.248358 0.000000 2.056061 6.260290 -2.474126 0.000000 -6.350960 0.000000 -9.134323 2.922659 -11.849635 0.000000 0.095567 0.000000 -4.503524 3.423471 7.612167 0.000000 -7.843452 0.000000
